<?xml version="1.0" encoding="utf-8"?>
<!-- Generator: Adobe Illustrator 17.1.0, SVG Export Plug-In . SVG Version: 6.00 Build 0)  -->
<!DOCTYPE svg PUBLIC "-//W3C//DTD SVG 1.1//EN" "http://www.w3.org/Graphics/SVG/1.1/DTD/svg11.dtd">
<svg version="1.1" id="Layer_1" xmlns="http://www.w3.org/2000/svg" xmlns:xlink="http://www.w3.org/1999/xlink" x="0px" y="0px"
	 viewBox="239.5 71.8 362.8 332.6" enable-background="new 239.5 71.8 362.8 332.6" xml:space="preserve">
<g>
	<g>
		<g>
			<path fill="#85BC22" d="M476.3,360.1c-3,0-5.7-1.7-7-4.6c-8.3-19.5-31-28.6-50.5-20.2c-3.9,1.6-8.3-0.1-9.9-4L310.4,101l-33-14.1
				h-30.3c-4.2,0-7.6-3.4-7.6-7.6s3.4-7.6,7.6-7.6h31.8c1,0,2,0.2,3,0.6L319,88.2c1.8,0.8,3.2,2.2,4,4l97,226.7
				c22.9-6.2,47.4,3.6,59.7,23.9L591.8,295c3.8-1.6,8.3,0.1,9.9,4c1.6,3.9-0.1,8.3-4,9.9l-118.5,50.6
				C478.3,359.9,477.3,360.1,476.3,360.1z"/>
		</g>
		<g>
			<path fill="#85BC22" d="M580.2,315.8c-3,0-5.7-1.7-7-4.6l-59.5-139.1l-139.3,59.4c-3.9,1.6-8.3-0.1-9.9-4c-1.6-3.9,0.1-8.3,4-9.9
				l146.2-62.4c3.8-1.7,8.3,0.1,9.9,4l62.5,146c1.7,3.9-0.1,8.3-4,9.9C582.2,315.6,581.2,315.8,580.2,315.8z"/>
		</g>
		<g>
			<path fill="#85BC22" d="M400.7,219.7c-3,0-5.7-1.7-7-4.6l-37.5-87.6c-0.8-1.9-0.8-3.9,0-5.8c0.8-1.9,2.2-3.3,4-4.1L462.6,74
				c3.8-1.7,8.3,0.1,9.9,4l37.5,87.6c0.8,1.9,0.8,3.9,0,5.8c-0.8,1.9-2.2,3.3-4,4.1l-102.3,43.7
				C402.7,219.5,401.7,219.7,400.7,219.7z M373.2,128.6l31.5,73.7l88.4-37.7l-31.5-73.7L373.2,128.6z"/>
		</g>
		<g>
			<path fill="#85BC22" d="M429.9,404.4c-17.3,0-31.4-14.1-31.4-31.4c0-17.3,14.1-31.4,31.4-31.4c17.3,0,31.4,14.1,31.4,31.4
				C461.4,390.4,447.3,404.4,429.9,404.4z M429.9,356.8c-9,0-16.3,7.3-16.3,16.2s7.3,16.2,16.3,16.2s16.3-7.3,16.3-16.2
				S438.9,356.8,429.9,356.8z"/>
		</g>
	</g>
</g>
</svg>
