<?xml version="1.0" encoding="utf-8"?>
<!-- Generator: Adobe Illustrator 17.1.0, SVG Export Plug-In . SVG Version: 6.00 Build 0)  -->
<!DOCTYPE svg PUBLIC "-//W3C//DTD SVG 1.1//EN" "http://www.w3.org/Graphics/SVG/1.1/DTD/svg11.dtd">
<svg version="1.1" id="Layer_1" xmlns="http://www.w3.org/2000/svg" xmlns:xlink="http://www.w3.org/1999/xlink" x="0px" y="0px"
	 viewBox="0 0 841.9 595.3" enable-background="new 0 0 841.9 595.3" xml:space="preserve">
<g>
	<title>hamburger, List, menu, website</title>
	<desc>Created with Sketch.</desc>
	<g>
		<path d="M55.3,330.1c-18.2,0-33-14.7-33-32.9s14.8-32.9,33-32.9h731.2c18.2,0,33,14.7,33,32.9s-14.8,32.9-33,32.9H55.3z
			 M57.8,593.4c-18.2,0-33-14.7-33-32.9c0-18.2,14.8-32.9,33-32.9h728.8c18.2,0,33,14.7,33,32.9c0,18.2-14.8,32.9-33,32.9H57.8z
			 M57.8,66.9c-18.2,0-33-14.7-33-32.9C24.8,15.8,39.6,1,57.8,1h728.8c18.2,0,33,14.7,33,32.9c0,18.2-14.8,32.9-33,32.9H57.8z"/>
	</g>
</g>
</svg>
