<?xml version="1.0" encoding="utf-8"?>
<!-- Generator: Adobe Illustrator 17.1.0, SVG Export Plug-In . SVG Version: 6.00 Build 0)  -->
<!DOCTYPE svg PUBLIC "-//W3C//DTD SVG 1.1//EN" "http://www.w3.org/Graphics/SVG/1.1/DTD/svg11.dtd">
<svg version="1.1"
	 id="Layer_1" xmlns:svg="http://www.w3.org/2000/svg" xmlns:dc="http://purl.org/dc/elements/1.1/" xmlns:inkscape="http://www.inkscape.org/namespaces/inkscape" xmlns:sodipodi="http://sodipodi.sourceforge.net/DTD/sodipodi-0.dtd" xmlns:cc="http://creativecommons.org/ns#" xmlns:rdf="http://www.w3.org/1999/02/22-rdf-syntax-ns#"
	 xmlns="http://www.w3.org/2000/svg" xmlns:xlink="http://www.w3.org/1999/xlink" x="0px" y="0px" viewBox="259 19 323.8 438.1"
	 enable-background="new 259 19 323.8 438.1" xml:space="preserve">
<g transform="translate(0,-952.36218)">
	<g>
		<path fill="#85BC22" d="M420.9,971.4c-19.4,0-35.6,11.9-43,28.6h-33.2c-5,0-9.5,4.5-9.5,9.5v9.5h-66.7c-5.3,0-9.5,5-9.5,9.5V1400
			c0,5,4.5,9.5,9.5,9.5h304.8c5,0,9.5-4.5,9.5-9.5v-371.5c0-5-4.5-9.5-9.5-9.5h-66.7v-9.5c0-5-4.5-9.5-9.5-9.5H464
			C456.5,983.3,440.3,971.4,420.9,971.4z M420.9,990.5c13.5,0,24.5,9,27.7,21.3c1,4.1,5,7.3,9.2,7.3h29.8v28.6H354.3V1019H384
			c4.2,0,8.2-3.2,9.2-7.3C396.4,999.4,407.5,990.5,420.9,990.5z M278.1,1038.1h57.1v19c0,5,4.5,9.5,9.5,9.5h152.4
			c5,0,9.5-4.5,9.5-9.5v-19h57.1v352.4H278.1V1038.1z M325.7,1080.9c-5.3,0-9.5,4.3-9.5,9.5c0,5.3,4.3,9.5,9.5,9.5h190.5
			c5.3,0,9.5-4.3,9.5-9.5c0-5.3-4.3-9.5-9.5-9.5H325.7z M325.7,1166.7c-5.3,0-9.5,4.3-9.5,9.5c0,5.3,4.3,9.5,9.5,9.5h190.5
			c5.3,0,9.5-4.3,9.5-9.5c0-5.3-4.3-9.5-9.5-9.5H325.7z M325.7,1252.4c-5.3,0-9.5,4.3-9.5,9.5c0,5.3,4.3,9.5,9.5,9.5h190.5
			c5.3,0,9.5-4.3,9.5-9.5c0-5.3-4.3-9.5-9.5-9.5H325.7z M534.6,1290.3c-2.5,0.2-4.8,1.3-6.4,3.1l-56.1,60.4l-31.3-23.5
			c-4.2-3.2-10.2-2.3-13.3,1.9s-2.3,10.2,1.9,13.3c0.1,0,0.1,0.1,0.2,0.1l38.1,28.6c3.9,2.9,9.4,2.4,12.6-1.2l61.9-66.7
			c3.6-3.8,3.5-9.8-0.3-13.5C540,1291.1,537.3,1290.1,534.6,1290.3L534.6,1290.3z M325.7,1338.1c-5.3,0-9.5,4.3-9.5,9.5
			c0,5.3,4.3,9.5,9.5,9.5h71.4c5.3,0,9.5-4.3,9.5-9.5c0-5.3-4.3-9.5-9.5-9.5H325.7z"/>
	</g>
</g>
</svg>
