<?xml version="1.0" encoding="utf-8"?>
<!-- Generator: Adobe Illustrator 17.1.0, SVG Export Plug-In . SVG Version: 6.00 Build 0)  -->
<!DOCTYPE svg PUBLIC "-//W3C//DTD SVG 1.1//EN" "http://www.w3.org/Graphics/SVG/1.1/DTD/svg11.dtd">
<svg version="1.1" id="Layer_1" xmlns="http://www.w3.org/2000/svg" xmlns:xlink="http://www.w3.org/1999/xlink" x="0px" y="0px"
	 viewBox="270.9 46.4 300 383.4" enable-background="new 270.9 46.4 300 383.4" xml:space="preserve">
<title>Artboard 6</title>
<path fill="#7AAE1F" d="M276.7,373.7c-3.3,16.1-5.3,32.5-5.8,49c0,3.9,3.2,7.1,7.1,7.1h71.5c3.9,0,7.1-3.2,7.1-7.1
	c0-15.4,0.5-30.7,1.7-47.1c1.1-16.4,2.9-32.2,5.1-47c2.3-15.8,5.5-31.4,9.5-46.8c4.1-16.1,10.5-31.5,19-45.7
	c4.8-8.8,12.5-15.6,21.8-19.4v122.7c0,3.9,3.2,7.1,7.1,7.1c23.8,0,42.9-34.5,42.9-78.6c0-6.7-0.5-13.3-1.4-19.9l54.7,54.4
	c2.8,2.8,7.3,2.8,10.1,0c17-16.9,5.9-54.6-25.2-85.7c-4.7-4.7-9.8-9-15.1-13h77c3.9,0,7.1-3.2,7.1-7.1c0-23.8-34.5-42.9-78.6-42.9
	c-10.9-0.1-21.7,1.1-32.3,3.6c2.5-10.5,3.7-21.3,3.7-32.1c0-44.1-19-78.6-42.9-78.6c-3.9,0-7.1,3.2-7.1,7.1v77.1
	c-4-5.3-8.4-10.3-13-15c-12.8-13.4-28.5-23.6-45.9-30c-17-5.7-31.2-4-40,4.8c0,0,0,0-0.1,0.1c-2.8,2.8-2.7,7.3,0.1,10l54.5,55
	c-6.6-0.9-13.2-1.4-19.9-1.4c-44.1,0-78.6,19-78.6,42.9c0,3.9,3.2,7.1,7.1,7.1h78.1c-8.2,7.3-15.6,15.5-22,24.3l0,0l0,0
	c-11,15.2-20.3,31.5-27.7,48.7l0,0l0,0c-6.9,15.7-12.9,31.9-17.8,48.3C283.8,341.2,279.8,357.4,276.7,373.7z M373.8,239.3
	c-5.3,10.7-9.6,21.9-12.9,33.3h-36.7c5.6-11.6,12.2-22.8,19.6-33.3H373.8z M357,286.9c-2.5,10.3-4.8,21.4-6.7,33.3h-45.1
	c3.8-11.7,8-22.9,12.5-33.3H357z M292.7,367.9c2.4-11.3,5.2-22.5,8.3-33.3h47.3c-1.4,10.7-2.6,21.9-3.6,33.3H292.7z M349.5,167.9
	c13.7-0.2,27.4,2.1,40.3,6.6c7,2.4,13.3,6.2,18.7,11.2c0.9,0.9,1.8,1.9,2.5,3c0.1,0.2,0.2,0.4,0.3,0.6H287.6
	C294.8,178.1,318.3,167.9,349.5,167.9z M414.5,159L414.5,159c0.9,1.9,1.6,3.8,2.2,5.6l0.5,1.6c0.5,1.4,0.9,2.7,1.2,4
	c0.3,0.5,0.3,1,0.3,1.4c0.4,1.6,0.6,3.2,0.8,4.8l-0.5-0.5c-1.2-1.2-2.4-2.4-3.8-3.5l-0.3-0.3c-1.5-1.2-3.1-2.3-4.8-3.4l-1.2-0.8
	c-1.8-1.1-3.6-2.2-5.5-3.1l-0.7-0.3c-1.8-0.9-3.7-1.7-5.7-2.6h-0.8l-64.6-64.9c1.6-0.3,3.2-0.5,4.8-0.5c4.7,0.1,9.3,1,13.8,2.6
	c15.3,5.7,29.1,14.8,40.3,26.6C400.5,135.3,408.5,146.6,414.5,159z M449.5,125c0,12.8-2.1,25.5-6.1,37.6H443
	c-1.8,0.8-3.5,1.5-5.1,2.4l-1.1,0.6c-1.4,0.8-2.8,1.5-4.1,2.3l-0.6,0.3c0-0.1,0-0.2,0-0.3c-0.5-2-1-4-1.7-6.1v-0.4
	c-0.7-2-1.5-4.1-2.4-6.2v-0.6V63.1C439.3,70.3,449.5,93.8,449.5,125z M554.3,189.2h-91.5c-1.5-0.7-3.8-1.5-4.5-1.8s-1.5-0.9-2.2-0.9
	c-4.6-1.6-9.4-2.6-14.3-3.1h-2c-1.3,0-2.6,0-3.9,0c1.3-1.1,2.6-2,4-2.9l1.3-0.8c1.2-0.7,2.4-1.4,3.7-2l1.5-0.8
	c1.8-0.9,3.6-1.7,5.6-2.4c13-4.6,26.6-6.8,40.3-6.7C523.6,167.9,547.1,178.1,554.3,189.2z M455.5,220.9v-0.4
	c-0.9-2.2-1.8-4.3-2.8-6.3l-0.4-0.7c-1-1.9-2-3.8-3.2-5.6c-0.1-0.2-0.2-0.4-0.4-0.6c-1.1-1.7-2.3-3.2-3.5-4.8l-0.3-0.4
	c-1.2-1.5-2.5-2.9-3.9-4.2l0,0c1.6,0.2,3.2,0.4,4.8,0.8l1.3,0.3c1.3,0.3,2.7,0.7,4.1,1.2l1.6,0.5c1.9,0.7,3.7,1.4,5.6,2.2
	c12.4,5.9,23.7,14,33.3,23.8c22,22.1,31.4,46,28.6,59L455.5,220.9z M428.1,329.8V206l1.5,1l0.4,0.3c0.9,0.7,1.7,1.6,2.6,2.4l0.6,0.8
	c0.7,0.8,1.3,1.6,2,2.4l0.6,0.8c0.8,1.1,1.6,2.3,2.3,3.6l0.4,0.7c0.6,1.1,1.2,2.3,1.8,3.5l0.6,1.2c0.7,1.6,1.4,3.1,2,4.8
	c4.6,13,6.8,26.6,6.7,40.3C449.5,299.1,439.3,322.6,428.1,329.8L428.1,329.8z M382.3,225h-27.1c7.2-8.3,15.6-15.5,25-21.4h27.5
	C397.2,208,388.3,215.5,382.3,225z M285.5,415.5c0.8-11.2,2.2-22.3,4.2-33.3h54c-0.7,11.2-1.2,22.4-1.2,33.3H285.5z"/>
</svg>
