<?xml version="1.0" encoding="utf-8"?>
<!-- Generator: Adobe Illustrator 17.1.0, SVG Export Plug-In . SVG Version: 6.00 Build 0)  -->
<!DOCTYPE svg PUBLIC "-//W3C//DTD SVG 1.1//EN" "http://www.w3.org/Graphics/SVG/1.1/DTD/svg11.dtd">
<svg version="1.1" id="Layer_1" xmlns="http://www.w3.org/2000/svg" xmlns:xlink="http://www.w3.org/1999/xlink" x="0px" y="0px"
	 viewBox="234.4 54.5 373.1 365.9" enable-background="new 234.4 54.5 373.1 365.9" xml:space="preserve">
<title>loro papat maning</title>
<path fill="#84BC22" d="M607.6,297.6l-44.6,83.9c0,0-9.7,16.7-49.9,19l-46.1,1.2v18.6l-24.6-32l-24.6-32.6l24.6-32.6l24.6-32.6v26.9
	h85.4C552.4,317.6,590.9,320.9,607.6,297.6z M575.9,196.9l-72.9,42.3l37.1,63.2c37.2,3.4,48.5-8,48.5-8
	c29.8-16.8,13.2-54.2,13.2-54.2L575.9,196.9z M284.9,373.4c-11.3-26.3,11.5-57.6,11.5-57.6l44.6-73.1l22.9,14l-14.9-37.9l-14.9-37.9
	l-40.6,4.2l-40.6,4.2l15.9,9.7l-22.6,39.3c-18.8,35.7-9.5,52.5-9.5,52.5L284.9,373.4z M297.6,360.4c-1,34.2,39.4,39.3,39.4,39.3
	l50.3,0.9l1.5-84.2l-72.9-1.5c-22,29.9-18.2,45.7-18.2,45.7L297.6,360.4z M479.7,188.4l40.3,6.1l17-37.1l17-37.1l-16.4,8.8
	l-23.2-39.9c-21.3-34.2-40.5-34.8-40.5-34.8h-95.4c28.4,3.6,44.6,39,44.6,39l40.6,75.2l-23.7,12.8L479.7,188.4z M413.4,108.6
	c-14.9-34.4-29.8-39-29.8-39c-28.9-18.2-53.9,14.1-53.9,14.1l-26.5,43l71.9,44.6L413.4,108.6z"/>
</svg>
