<?xml version="1.0" encoding="utf-8"?>
<!-- Generator: Adobe Illustrator 17.1.0, SVG Export Plug-In . SVG Version: 6.00 Build 0)  -->
<!DOCTYPE svg PUBLIC "-//W3C//DTD SVG 1.1//EN" "http://www.w3.org/Graphics/SVG/1.1/DTD/svg11.dtd">
<svg version="1.1" id="Layer_1" xmlns="http://www.w3.org/2000/svg" xmlns:xlink="http://www.w3.org/1999/xlink" x="0px" y="0px"
	 viewBox="197.4 241.1 220 191.8" enable-background="new 197.4 241.1 220 191.8" xml:space="preserve">
<g>
	<g>
		<g>
			<path fill="#E8E2D6" d="M259.3,425.2c-5.9-10.2-11.8-20.4-17.7-30.7c-9.4-16.3-18.8-32.6-28.3-48.9c-2.2-3.8-4.4-7.5-6.5-11.3
				c0,1.7,0,3.4,0,5.1c5.9-10.2,11.8-20.4,17.7-30.7c9.4-16.3,18.8-32.6,28.3-48.9c2.2-3.8,4.4-7.5,6.5-11.3
				c-1.5,0.8-2.9,1.6-4.3,2.5c11.8,0,23.6,0,35.4,0c18.8,0,37.7,0,56.5,0c4.4,0,8.7,0,13,0c-1.5-0.8-2.9-1.6-4.3-2.5
				c5.9,10.2,11.8,20.4,17.7,30.7c9.4,16.3,18.8,32.6,28.3,48.9c2.2,3.8,4.4,7.5,6.5,11.3c0-1.7,0-3.4,0-5.1
				c-5.9,10.2-11.8,20.4-17.7,30.7c-9.4,16.3-18.8,32.6-28.3,48.9c-2.2,3.8-4.4,7.5-6.5,11.3c1.5-0.8,2.9-1.6,4.3-2.5
				c-11.8,0-23.6,0-35.4,0c-18.8,0-37.7,0-56.5,0c-4.4,0-8.7,0-13,0c-6.5,0-6.5,10,0,10c12,0,23.9,0,35.9,0c18.9,0,37.8,0,56.7,0
				c4.1,0,8.2,0.2,12.3,0c4.4-0.2,6.4-5.9,8.3-9.2c9-15.6,18-31.2,27-46.7c7.1-12.2,14.4-24.4,21.2-36.7c0.1-0.2,0.2-0.4,0.3-0.6
				c0.9-1.5,0.9-3.5,0-5.1c-11.2-19.3-22.3-38.5-33.4-57.8c-5.7-9.9-11.5-19.8-17.2-29.8c-1.5-2.7-2.7-5.5-6.3-5.7
				c-2.6-0.1-5.3,0-7.9,0c-27.2,0-54.4,0-81.6,0c-4.3,0-8.6,0-12.8,0c-2.9,0-5.3,0-7.1,3c-4.7,7.7-9,15.7-13.5,23.4
				c-12.7,21.8-25.3,43.7-37.9,65.6c-0.2,0.4-0.5,0.9-0.8,1.3c-0.9,1.5-0.9,3.5,0,5.1c5.9,10.2,11.8,20.4,17.7,30.7
				c9.4,16.3,18.8,32.6,28.3,48.9c2.2,3.8,4.4,7.5,6.5,11.3C253.8,435.9,262.5,430.9,259.3,425.2z"/>
		</g>
	</g>
	<g>
		<g>
			<g>
				<path fill="#E8E2D6" d="M318.9,355.1c-7.6,0-15.3,0-22.9,0c1.7,1.7,3.3,3.3,5,5c0-9.7,0-19.4,0-29.1c0-15.5,0-30.9,0-46.4
					c0-3.6,0-7.2,0-10.8c-1.7,1.7-3.3,3.3-5,5c7.6,0,15.3,0,22.9,0c-1.7-1.7-3.3-3.3-5-5c0,9.7,0,19.4,0,29.1c0,15.5,0,30.9,0,46.4
					c0,3.6,0,7.2,0,10.8c0,6.5,10,6.5,10,0c0-9.7,0-19.4,0-29.1c0-15.5,0-30.9,0-46.4c0-3.6,0-7.2,0-10.8c0-2.7-2.3-5-5-5
					c-7.6,0-15.3,0-22.9,0c-2.7,0-5,2.3-5,5c0,9.7,0,19.4,0,29.1c0,15.5,0,30.9,0,46.4c0,3.6,0,7.2,0,10.8c0,2.7,2.3,5,5,5
					c7.6,0,15.3,0,22.9,0C325.3,365.1,325.3,355.1,318.9,355.1z"/>
			</g>
		</g>
		<g>
			<g>
				<path fill="#E8E2D6" d="M313.9,388.6c-0.1,3.5-2.9,6.4-6.4,6.4c-3.5,0-6.4-2.9-6.4-6.4s2.9-6.4,6.4-6.4
					C311,382.2,313.8,385.1,313.9,388.6c0.2,6.4,10.2,6.5,10,0c-0.2-7-4.4-13.2-11.1-15.6c-6.2-2.2-13.6-0.2-17.8,4.8
					c-4.5,5.4-5.3,13.1-1.6,19.2c3.6,6,10.5,8.9,17.3,7.6c7.7-1.4,13-8.5,13.2-16.1C324.1,382.1,314,382.1,313.9,388.6z"/>
			</g>
		</g>
	</g>
</g>
</svg>
